<svg width="195" height="35" viewBox="0 0 195 35" xmlns="http://www.w3.org/2000/svg"><g fill="#fff"><g><path d="M44.735 26.259l-1.719-5.707h-8.642l-1.719 5.707h-5.416l8.367-24.073h6.146l8.4 24.073h-5.417zm-2.918-9.97c-1.589-5.171-2.483-8.095-2.684-8.773-.2-.677-.343-1.213-.43-1.607-.357 1.4-1.378 4.86-3.065 10.38h6.178zM61.041 26.587c-2.13 0-3.8-.781-5.011-2.345h-.259c.173 1.531.259 2.416.259 2.657v7.429h-4.946v-26.402h4.021l.698 2.377h.227c1.157-1.814 2.87-2.722 5.14-2.722 2.141 0 3.816.836 5.027 2.509 1.21 1.672 1.816 3.995 1.816 6.969 0 1.957-.284 3.657-.851 5.1-.568 1.443-1.376 2.542-2.424 3.296s-2.281 1.133-3.697 1.133zm-1.459-15.005c-1.222 0-2.114.38-2.676 1.139-.562.76-.854 2.014-.876 3.763v.541c0 1.967.289 3.379.867 4.231.578.853 1.494 1.279 2.749 1.279 2.216 0 3.324-1.847 3.324-5.543 0-1.804-.273-3.157-.819-4.058-.545-.902-1.402-1.353-2.569-1.353zM80.396 26.587c-2.13 0-3.8-.781-5.01-2.345h-.26c.173 1.531.26 2.416.26 2.657v7.429h-4.946v-26.402h4.021l.698 2.377h.227c1.157-1.814 2.87-2.722 5.14-2.722 2.141 0 3.816.836 5.027 2.509 1.21 1.672 1.816 3.995 1.816 6.969 0 1.957-.284 3.657-.852 5.1-.568 1.443-1.375 2.542-2.424 3.296-1.05.755-2.282 1.133-3.698 1.133zm-1.459-15.005c-1.222 0-2.114.38-2.675 1.139-.562.76-.854 2.014-.876 3.763v.541c0 1.967.289 3.379.867 4.231.578.853 1.494 1.279 2.749 1.279 2.216 0 3.324-1.847 3.324-5.543 0-1.804-.273-3.157-.819-4.058-.545-.902-1.402-1.353-2.57-1.353zM97.432 22.602c.864 0 1.902-.191 3.113-.574v3.723c-1.232.557-2.746.836-4.54.836-1.978 0-3.419-.506-4.321-1.518-.903-1.011-1.354-2.528-1.354-4.549v-8.839h-2.367v-2.116l2.724-1.673 1.427-3.87h3.162v3.903h5.075v3.755h-5.075v8.839c0 .709.197 1.235.592 1.574.394.338.916.508 1.564.508zM110.755 26.587c-2.919 0-5.2-.814-6.843-2.443-1.643-1.629-2.465-3.936-2.465-6.92 0-3.071.759-5.447 2.278-7.126 1.519-1.678 3.619-2.517 6.301-2.517 2.562 0 4.557.738 5.984 2.215 1.426 1.476 2.14 3.514 2.14 6.116v2.428h-11.691c.054 1.42.471 2.531 1.248 3.328.779.799 1.871 1.197 3.276 1.197 1.092 0 2.124-.114 3.098-.345.973-.23 1.989-.595 3.048-1.099v3.87c-.865.437-1.789.763-2.773.976-.985.213-2.185.32-3.601.32zm-.697-15.447c-1.048 0-1.87.336-2.465 1.008-.595.673-.935 1.626-1.021 2.862h6.94c-.022-1.236-.341-2.189-.956-2.862-.617-.672-1.449-1.008-2.498-1.008zM137.245 26.259h-4.946v-10.708c0-1.322-.232-2.314-.697-2.976-.465-.661-1.206-.991-2.222-.991-1.384 0-2.383.467-3 1.402-.616.935-.923 2.484-.923 4.649v8.625h-4.946v-18.334h3.778l.666 2.345h.275c.551-.886 1.311-1.556 2.279-2.008.968-.455 2.068-.681 3.3-.681 2.108 0 3.708.576 4.8 1.73 1.092 1.153 1.638 2.817 1.638 4.993v11.954zM148.314 22.602c.864 0 1.902-.191 3.113-.574v3.723c-1.232.557-2.746.836-4.54.836-1.978 0-3.419-.506-4.321-1.518-.903-1.011-1.354-2.528-1.354-4.549v-8.839h-2.367v-2.116l2.724-1.673 1.427-3.87h3.162v3.903h5.075v3.755h-5.075v8.839c0 .709.197 1.235.592 1.574.394.338.916.508 1.564.508zM153.22 3.186c0-1.628.897-2.443 2.692-2.443 1.795 0 2.693.814 2.693 2.443 0 .777-.225 1.381-.673 1.812-.449.432-1.121.648-2.019.648-1.795.001-2.693-.819-2.693-2.459zm5.157 23.073h-4.946v-18.334h4.946v18.334zM166.219 26.259l-6.908-18.334h5.173l3.503 10.446c.389 1.323.633 2.574.73 3.755h.098c.054-1.049.297-2.301.73-3.755l3.486-10.446h5.173l-6.908 18.334h-5.077zM187.342 26.587c-2.919 0-5.2-.814-6.843-2.443-1.643-1.629-2.465-3.936-2.465-6.92 0-3.071.759-5.447 2.278-7.126 1.519-1.678 3.619-2.517 6.301-2.517 2.562 0 4.557.738 5.984 2.215 1.426 1.476 2.14 3.514 2.14 6.116v2.428h-11.691c.054 1.42.471 2.531 1.248 3.328.779.799 1.871 1.197 3.276 1.197 1.092 0 2.124-.114 3.098-.345.973-.23 1.989-.595 3.048-1.099v3.87c-.865.437-1.789.763-2.773.976-.985.213-2.185.32-3.601.32zm-.698-15.447c-1.048 0-1.87.336-2.465 1.008-.595.673-.935 1.626-1.021 2.862h6.94c-.022-1.236-.341-2.189-.956-2.862-.616-.672-1.449-1.008-2.498-1.008z" id="Shape"/></g><path d="M23.473 5.608c.701 1.672.825 3.294.374 4.867l-5.491 15.499-14.624-5.405c-1.426-.659-2.477-1.773-3.152-3.342-.746-1.677-.773-3.465-.08-5.367.668-1.874 1.845-3.225 3.531-4.052 1.556-.825 3.175-1.049 4.856-.675 5.245 1.475 7.336 4.103 6.273 7.883-1.73-2.48-3.771-3.982-6.12-4.504-2.35-.601-3.922.212-4.716 2.44-.765 2.223-.32 3.725 1.338 4.502l10.464 3.898 4.197-11.779c.273-1.025.149-2.014-.373-2.966-.595-1.104-1.498-1.879-2.712-2.329-1.311-.523-2.535-.536-3.671-.037-.989.425-1.596 1-1.821 1.729l-3.634-1.241c.741-1.853 2.126-3.191 4.154-4.015 1.954-.901 4.021-.95 6.2-.147 1.931.725 3.488 2.162 4.673 4.311l.335.729z"/></g></svg>