<svg width="42" height="41" viewBox="0 0 42 41" xmlns="http://www.w3.org/2000/svg" xmlns:sketch="http://www.bohemiancoding.com/sketch/ns"><title>heart-svg</title><desc></desc><path d="M39.103 21.278l-17.172 19.107-18.57-16.134c-1.733-1.762-2.646-3.963-2.736-6.602-.131-2.834.87-5.418 3.004-7.753 2.084-2.307 4.617-3.573 7.603-3.795 2.789-.293 5.323.312 7.603 1.813 6.93 5.12 8.506 10.089 4.729 14.909-1.127-4.551-3.284-7.875-6.47-9.971-3.139-2.209-5.946-1.94-8.42.804-2.432 2.753-2.643 5.165-.634 7.23l13.269 11.588 13.087-14.509c1-1.316 1.392-2.806 1.17-4.471-.239-1.925-1.13-3.557-2.672-4.896-1.643-1.502-3.453-2.221-5.43-2.155-1.716.042-2.953.522-3.709 1.44l-4.674-3.863c2.179-2.237 5.014-3.365 8.505-3.387 3.427-.175 6.524.938 9.291 3.338 2.445 2.146 3.921 5.101 4.431 8.867.022.254.048.668.075 1.238.067 2.802-.692 5.203-2.279 7.202z" sketch:type="MSShapeGroup" fill="#CC3833"/></svg>
